<svg xmlns="http://www.w3.org/2000/svg" xmlns:xlink="http://www.w3.org/1999/xlink" width="500" zoomAndPan="magnify" viewBox="0 0 375 374.999991" height="500" preserveAspectRatio="xMidYMid meet" version="1.0"><defs><clipPath id="b90a060f1b"><path d="M 121.503906 11.988281 L 253.589844 11.988281 L 253.589844 117.503906 L 121.503906 117.503906 Z M 121.503906 11.988281 " clip-rule="nonzero"/></clipPath><clipPath id="59b48a7eca"><path d="M 234 103 L 355 103 L 355 229 L 234 229 Z M 234 103 " clip-rule="nonzero"/></clipPath><clipPath id="b6accc1cff"><path d="M 333.1875 72.097656 L 375.023438 197.382812 L 274.941406 230.804688 L 233.105469 105.519531 Z M 333.1875 72.097656 " clip-rule="nonzero"/></clipPath><clipPath id="aae2f1ae9f"><path d="M 333.1875 72.097656 L 375.023438 197.382812 L 274.941406 230.804688 L 233.105469 105.519531 Z M 333.1875 72.097656 " clip-rule="nonzero"/></clipPath><clipPath id="3568a71b30"><path d="M 20 103 L 141 103 L 141 229 L 20 229 Z M 20 103 " clip-rule="nonzero"/></clipPath><clipPath id="ab6f065c87"><path d="M 0.00390625 197.292969 L 41.84375 72.007812 L 141.925781 105.433594 L 100.085938 230.714844 Z M 0.00390625 197.292969 " clip-rule="nonzero"/></clipPath><clipPath id="350fafdb23"><path d="M 0.00390625 197.292969 L 41.84375 72.007812 L 141.925781 105.433594 L 100.085938 230.714844 Z M 0.00390625 197.292969 " clip-rule="nonzero"/></clipPath><clipPath id="5a39eee348"><path d="M 180 202 L 296 202 L 296 326 L 180 326 Z M 180 202 " clip-rule="nonzero"/></clipPath><clipPath id="e9fe380267"><path d="M 346.441406 285.164062 L 239.769531 363.0625 L 177.542969 277.847656 L 284.210938 199.949219 Z M 346.441406 285.164062 " clip-rule="nonzero"/></clipPath><clipPath id="5c002323ac"><path d="M 346.441406 285.164062 L 239.769531 363.0625 L 177.542969 277.847656 L 284.210938 199.949219 Z M 346.441406 285.164062 " clip-rule="nonzero"/></clipPath><clipPath id="8a1532f9e5"><path d="M 79 202 L 195 202 L 195 326 L 79 326 Z M 79 202 " clip-rule="nonzero"/></clipPath><clipPath id="f8e51619e1"><path d="M 136.035156 362.539062 L 28.566406 285.746094 L 89.910156 199.894531 L 197.378906 276.6875 Z M 136.035156 362.539062 " clip-rule="nonzero"/></clipPath><clipPath id="27d8566a54"><path d="M 136.035156 362.539062 L 28.566406 285.746094 L 89.910156 199.894531 L 197.378906 276.6875 Z M 136.035156 362.539062 " clip-rule="nonzero"/></clipPath><clipPath id="cfeeb22505"><path d="M 131.25 127.5 L 243.597656 127.5 L 243.597656 239.847656 L 131.25 239.847656 Z M 131.25 127.5 " clip-rule="nonzero"/></clipPath></defs><g clip-path="url(#b90a060f1b)"><path fill="#61dbfb" d="M 252.472656 107.25 L 193.09375 15.011719 C 191.878906 13.128906 189.789062 11.988281 187.542969 11.988281 C 185.300781 11.988281 183.207031 13.128906 181.996094 15.011719 L 122.617188 107.25 C 121.3125 109.277344 121.21875 111.855469 122.375 113.96875 C 123.535156 116.082031 125.753906 117.398438 128.167969 117.398438 L 246.921875 117.398438 C 249.335938 117.398438 251.554688 116.082031 252.714844 113.96875 C 253.871094 111.851562 253.777344 109.277344 252.472656 107.25 Z M 187.542969 30.757812 L 205.148438 58.105469 L 187.542969 58.105469 L 174.351562 71.28125 L 166.503906 63.445312 Z M 187.542969 30.757812 " fill-opacity="1" fill-rule="nonzero"/></g><g clip-path="url(#59b48a7eca)"><g clip-path="url(#b6accc1cff)"><g clip-path="url(#aae2f1ae9f)"><path fill="#61dbfb" d="M 284.3125 226.496094 L 352.992188 140.964844 C 354.398438 139.214844 354.816406 136.871094 354.105469 134.738281 C 353.394531 132.609375 351.648438 130.988281 349.476562 130.433594 L 243.183594 103.328125 C 240.847656 102.734375 238.371094 103.460938 236.730469 105.230469 C 235.09375 106.996094 234.546875 109.519531 235.3125 111.808594 L 272.929688 224.449219 C 273.691406 226.738281 275.644531 228.429688 278.019531 228.855469 C 280.390625 229.28125 282.804688 228.378906 284.3125 226.496094 Z M 336.300781 140.6875 L 315.9375 166.046875 L 310.363281 149.347656 L 293.683594 141.003906 L 298.632812 131.082031 Z M 336.300781 140.6875 " fill-opacity="1" fill-rule="nonzero"/></g></g></g><g clip-path="url(#3568a71b30)"><g clip-path="url(#ab6f065c87)"><g clip-path="url(#350fafdb23)"><path fill="#61dbfb" d="M 131.84375 103.242188 L 25.550781 130.347656 C 23.375 130.902344 21.632812 132.523438 20.921875 134.652344 C 20.210938 136.78125 20.628906 139.125 22.035156 140.875 L 90.710938 226.410156 C 92.222656 228.292969 94.636719 229.195312 97.007812 228.769531 C 99.382812 228.339844 101.332031 226.652344 102.097656 224.363281 L 139.714844 111.722656 C 140.480469 109.433594 139.933594 106.910156 138.292969 105.144531 C 136.652344 103.375 134.179688 102.648438 131.84375 103.242188 Z M 38.726562 140.597656 L 70.242188 132.5625 L 64.664062 149.261719 L 72.984375 165.949219 L 63.066406 170.910156 Z M 38.726562 140.597656 " fill-opacity="1" fill-rule="nonzero"/></g></g></g><g clip-path="url(#5a39eee348)"><g clip-path="url(#e9fe380267)"><g clip-path="url(#5c002323ac)"><path fill="#61dbfb" d="M 184.492188 285.472656 L 286.839844 324.941406 C 288.933594 325.746094 291.292969 325.4375 293.105469 324.113281 C 294.921875 322.789062 295.9375 320.632812 295.804688 318.394531 L 289.359375 208.886719 C 289.21875 206.480469 287.773438 204.347656 285.589844 203.320312 C 283.410156 202.292969 280.839844 202.542969 278.890625 203.964844 L 182.988281 274 C 181.039062 275.425781 180.019531 277.796875 180.335938 280.1875 C 180.648438 282.578125 182.242188 284.605469 184.492188 285.472656 Z M 282.035156 308.953125 L 251.691406 297.25 L 265.910156 286.867188 L 268.792969 268.445312 L 279.753906 270.144531 Z M 282.035156 308.953125 " fill-opacity="1" fill-rule="nonzero"/></g></g></g><g clip-path="url(#8a1532f9e5)"><g clip-path="url(#f8e51619e1)"><g clip-path="url(#27d8566a54)"><path fill="#61dbfb" d="M 84.859375 208.886719 L 79.546875 318.457031 C 79.4375 320.695312 80.472656 322.839844 82.300781 324.144531 C 84.128906 325.449219 86.492188 325.738281 88.578125 324.910156 L 190.511719 284.382812 C 192.753906 283.492188 194.324219 281.449219 194.613281 279.054688 C 194.902344 276.664062 193.859375 274.300781 191.898438 272.898438 L 95.273438 203.855469 C 93.308594 202.453125 90.738281 202.234375 88.566406 203.28125 C 86.398438 204.332031 84.972656 206.480469 84.859375 208.886719 Z M 93.214844 308.871094 L 94.789062 276.386719 L 109.113281 286.621094 L 127.507812 283.570312 L 129.339844 294.507812 Z M 93.214844 308.871094 " fill-opacity="1" fill-rule="nonzero"/></g></g></g><g clip-path="url(#cfeeb22505)"><path fill="#61dbfb" d="M 187.425781 127.5 C 156.398438 127.5 131.25 152.648438 131.25 183.675781 C 131.25 214.699219 156.398438 239.847656 187.425781 239.847656 C 218.449219 239.847656 243.597656 214.699219 243.597656 183.675781 C 243.597656 152.648438 218.449219 127.5 187.425781 127.5 " fill-opacity="1" fill-rule="nonzero"/></g></svg>